<mxfile host="app.diagrams.net" agent="Mozilla/5.0 (Macintosh; Intel Mac OS X 10_15_7) AppleWebKit/537.36 (KHTML, like Gecko) Chrome/131.0.0.0 Safari/537.36" version="24.8.6">
  <diagram name="Page-1" id="Mq1EsVrIDb_VOnikYnV6">
    <mxGraphModel dx="1203" dy="695" grid="0" gridSize="10" guides="0" tooltips="1" connect="1" arrows="1" fold="1" page="0" pageScale="1" pageWidth="850" pageHeight="1100" math="0" shadow="0">
      <root>
        <mxCell id="0" />
        <mxCell id="1" parent="0" />
        <mxCell id="M95a9cunKCdw1WNQ83sx-1" value="AWS Cloud" style="points=[[0,0],[0.25,0],[0.5,0],[0.75,0],[1,0],[1,0.25],[1,0.5],[1,0.75],[1,1],[0.75,1],[0.5,1],[0.25,1],[0,1],[0,0.75],[0,0.5],[0,0.25]];outlineConnect=0;gradientColor=none;html=1;whiteSpace=wrap;fontSize=12;fontStyle=0;container=0;pointerEvents=0;collapsible=0;recursiveResize=0;shape=mxgraph.aws4.group;grIcon=mxgraph.aws4.group_aws_cloud_alt;strokeColor=#232F3E;fillColor=none;verticalAlign=top;align=left;spacingLeft=30;fontColor=#232F3E;dashed=0;" vertex="1" parent="1">
          <mxGeometry x="95" y="35" width="784" height="674" as="geometry" />
        </mxCell>
        <mxCell id="M95a9cunKCdw1WNQ83sx-31" value="" style="edgeStyle=orthogonalEdgeStyle;rounded=0;orthogonalLoop=1;jettySize=auto;html=1;" edge="1" parent="1" source="M95a9cunKCdw1WNQ83sx-2" target="M95a9cunKCdw1WNQ83sx-16">
          <mxGeometry relative="1" as="geometry" />
        </mxCell>
        <mxCell id="M95a9cunKCdw1WNQ83sx-2" value="&lt;font style=&quot;font-size: 14px;&quot;&gt;&lt;b&gt;Amazon Q Business&lt;/b&gt;&lt;/font&gt;&lt;div&gt;&lt;font size=&quot;3&quot;&gt;&lt;b&gt;application&lt;/b&gt;&lt;/font&gt;&lt;/div&gt;" style="sketch=0;points=[[0,0,0],[0.25,0,0],[0.5,0,0],[0.75,0,0],[1,0,0],[0,1,0],[0.25,1,0],[0.5,1,0],[0.75,1,0],[1,1,0],[0,0.25,0],[0,0.5,0],[0,0.75,0],[1,0.25,0],[1,0.5,0],[1,0.75,0]];outlineConnect=0;fontColor=#232F3E;fillColor=#01A88D;strokeColor=#ffffff;dashed=0;verticalLabelPosition=bottom;verticalAlign=top;align=center;html=1;fontSize=12;fontStyle=0;aspect=fixed;shape=mxgraph.aws4.resourceIcon;resIcon=mxgraph.aws4.q;" vertex="1" parent="1">
          <mxGeometry x="320" y="354" width="77" height="77" as="geometry" />
        </mxCell>
        <mxCell id="M95a9cunKCdw1WNQ83sx-3" value="" style="sketch=0;outlineConnect=0;fontColor=#232F3E;gradientColor=none;strokeColor=#ffffff;fillColor=#232F3E;dashed=0;verticalLabelPosition=middle;verticalAlign=bottom;align=center;html=1;whiteSpace=wrap;fontSize=10;fontStyle=1;spacing=3;shape=mxgraph.aws4.productIcon;prIcon=mxgraph.aws4.s3;" vertex="1" parent="1">
          <mxGeometry x="596.5" y="341" width="78.5" height="78" as="geometry" />
        </mxCell>
        <mxCell id="M95a9cunKCdw1WNQ83sx-5" value="" style="image;aspect=fixed;html=1;points=[];align=center;fontSize=12;image=img/lib/azure2/general/File.svg;" vertex="1" parent="1">
          <mxGeometry x="617.25" y="202" width="56.00000000000001" height="69" as="geometry" />
        </mxCell>
        <mxCell id="M95a9cunKCdw1WNQ83sx-7" value="" style="image;aspect=fixed;html=1;points=[];align=center;fontSize=12;image=img/lib/azure2/general/File.svg;" vertex="1" parent="1">
          <mxGeometry x="603.25" y="211.07" width="60" height="73.93" as="geometry" />
        </mxCell>
        <mxCell id="M95a9cunKCdw1WNQ83sx-10" value="" style="sketch=0;html=1;aspect=fixed;strokeColor=none;shadow=0;fillColor=#3B8DF1;verticalAlign=top;labelPosition=center;verticalLabelPosition=bottom;shape=mxgraph.gcp2.globe_world" vertex="1" parent="1">
          <mxGeometry x="601.25" y="77.6" width="77" height="73.15" as="geometry" />
        </mxCell>
        <mxCell id="M95a9cunKCdw1WNQ83sx-15" value="" style="rounded=1;whiteSpace=wrap;html=1;fillColor=none;" vertex="1" parent="1">
          <mxGeometry x="569" y="70" width="133.5" height="407" as="geometry" />
        </mxCell>
        <mxCell id="M95a9cunKCdw1WNQ83sx-11" value="&lt;font style=&quot;font-size: 12px;&quot;&gt;&lt;b&gt;Web crawler&lt;/b&gt;&lt;/font&gt;" style="text;html=1;align=center;verticalAlign=middle;resizable=0;points=[];autosize=1;strokeColor=none;fillColor=none;" vertex="1" parent="1">
          <mxGeometry x="591.75" y="149" width="88" height="26" as="geometry" />
        </mxCell>
        <mxCell id="M95a9cunKCdw1WNQ83sx-12" value="&lt;font style=&quot;font-size: 12px;&quot;&gt;&lt;b style=&quot;&quot;&gt;Upload files&lt;/b&gt;&lt;/font&gt;" style="text;html=1;align=center;verticalAlign=middle;resizable=0;points=[];autosize=1;strokeColor=none;fillColor=none;" vertex="1" parent="1">
          <mxGeometry x="590.25" y="284" width="86" height="26" as="geometry" />
        </mxCell>
        <mxCell id="M95a9cunKCdw1WNQ83sx-16" value="&lt;font style=&quot;font-size: 12px;&quot;&gt;&lt;b style=&quot;&quot;&gt;IAM Identity Center&lt;/b&gt;&lt;/font&gt;" style="sketch=0;points=[[0,0,0],[0.25,0,0],[0.5,0,0],[0.75,0,0],[1,0,0],[0,1,0],[0.25,1,0],[0.5,1,0],[0.75,1,0],[1,1,0],[0,0.25,0],[0,0.5,0],[0,0.75,0],[1,0.25,0],[1,0.5,0],[1,0.75,0]];outlineConnect=0;fontColor=#232F3E;fillColor=#DD344C;strokeColor=#ffffff;dashed=0;verticalLabelPosition=bottom;verticalAlign=top;align=center;html=1;fontSize=12;fontStyle=0;aspect=fixed;shape=mxgraph.aws4.resourceIcon;resIcon=mxgraph.aws4.single_sign_on;" vertex="1" parent="1">
          <mxGeometry x="320" y="208" width="77" height="77" as="geometry" />
        </mxCell>
        <mxCell id="M95a9cunKCdw1WNQ83sx-21" value="" style="rounded=1;whiteSpace=wrap;html=1;dashed=1;" vertex="1" parent="1">
          <mxGeometry x="467.75" y="517" width="355" height="132" as="geometry" />
        </mxCell>
        <mxCell id="M95a9cunKCdw1WNQ83sx-27" value="" style="edgeStyle=orthogonalEdgeStyle;rounded=0;orthogonalLoop=1;jettySize=auto;html=1;" edge="1" parent="1" source="M95a9cunKCdw1WNQ83sx-22" target="M95a9cunKCdw1WNQ83sx-26">
          <mxGeometry relative="1" as="geometry" />
        </mxCell>
        <mxCell id="M95a9cunKCdw1WNQ83sx-22" value="&lt;b&gt;API GW&lt;/b&gt;" style="sketch=0;points=[[0,0,0],[0.25,0,0],[0.5,0,0],[0.75,0,0],[1,0,0],[0,1,0],[0.25,1,0],[0.5,1,0],[0.75,1,0],[1,1,0],[0,0.25,0],[0,0.5,0],[0,0.75,0],[1,0.25,0],[1,0.5,0],[1,0.75,0]];outlineConnect=0;fontColor=#232F3E;fillColor=#E7157B;strokeColor=#ffffff;dashed=0;verticalLabelPosition=bottom;verticalAlign=top;align=center;html=1;fontSize=12;fontStyle=0;aspect=fixed;shape=mxgraph.aws4.resourceIcon;resIcon=mxgraph.aws4.api_gateway;" vertex="1" parent="1">
          <mxGeometry x="493.75" y="539" width="77" height="77" as="geometry" />
        </mxCell>
        <mxCell id="M95a9cunKCdw1WNQ83sx-25" value="&lt;b&gt;Amazon S3&lt;/b&gt;" style="text;html=1;align=center;verticalAlign=middle;resizable=0;points=[];autosize=1;strokeColor=none;fillColor=none;" vertex="1" parent="1">
          <mxGeometry x="593.25" y="421" width="83" height="26" as="geometry" />
        </mxCell>
        <mxCell id="M95a9cunKCdw1WNQ83sx-30" value="" style="edgeStyle=orthogonalEdgeStyle;rounded=0;orthogonalLoop=1;jettySize=auto;html=1;" edge="1" parent="1" source="M95a9cunKCdw1WNQ83sx-26" target="M95a9cunKCdw1WNQ83sx-29">
          <mxGeometry relative="1" as="geometry" />
        </mxCell>
        <mxCell id="M95a9cunKCdw1WNQ83sx-26" value="&lt;b&gt;Lambda&lt;/b&gt;" style="sketch=0;points=[[0,0,0],[0.25,0,0],[0.5,0,0],[0.75,0,0],[1,0,0],[0,1,0],[0.25,1,0],[0.5,1,0],[0.75,1,0],[1,1,0],[0,0.25,0],[0,0.5,0],[0,0.75,0],[1,0.25,0],[1,0.5,0],[1,0.75,0]];outlineConnect=0;fontColor=#232F3E;fillColor=#ED7100;strokeColor=#ffffff;dashed=0;verticalLabelPosition=bottom;verticalAlign=top;align=center;html=1;fontSize=12;fontStyle=0;aspect=fixed;shape=mxgraph.aws4.resourceIcon;resIcon=mxgraph.aws4.lambda;" vertex="1" parent="1">
          <mxGeometry x="609.75" y="539" width="77" height="77" as="geometry" />
        </mxCell>
        <mxCell id="M95a9cunKCdw1WNQ83sx-29" value="&lt;b&gt;DynamoDB&lt;/b&gt;" style="sketch=0;points=[[0,0,0],[0.25,0,0],[0.5,0,0],[0.75,0,0],[1,0,0],[0,1,0],[0.25,1,0],[0.5,1,0],[0.75,1,0],[1,1,0],[0,0.25,0],[0,0.5,0],[0,0.75,0],[1,0.25,0],[1,0.5,0],[1,0.75,0]];outlineConnect=0;fontColor=#232F3E;fillColor=#C925D1;strokeColor=#ffffff;dashed=0;verticalLabelPosition=bottom;verticalAlign=top;align=center;html=1;fontSize=12;fontStyle=0;aspect=fixed;shape=mxgraph.aws4.resourceIcon;resIcon=mxgraph.aws4.dynamodb;" vertex="1" parent="1">
          <mxGeometry x="725.75" y="539" width="77" height="77" as="geometry" />
        </mxCell>
        <mxCell id="M95a9cunKCdw1WNQ83sx-34" value="" style="edgeStyle=orthogonalEdgeStyle;rounded=0;orthogonalLoop=1;jettySize=auto;html=1;startArrow=classic;startFill=1;" edge="1" parent="1" source="M95a9cunKCdw1WNQ83sx-32" target="M95a9cunKCdw1WNQ83sx-2">
          <mxGeometry relative="1" as="geometry" />
        </mxCell>
        <mxCell id="M95a9cunKCdw1WNQ83sx-32" value="" style="points=[];aspect=fixed;html=1;align=center;shadow=0;dashed=0;fillColor=#FF6A00;strokeColor=none;shape=mxgraph.alibaba_cloud.user;" vertex="1" parent="1">
          <mxGeometry x="146" y="362.5" width="60" height="60" as="geometry" />
        </mxCell>
        <mxCell id="M95a9cunKCdw1WNQ83sx-33" value="&lt;b&gt;Users&lt;/b&gt;" style="text;html=1;align=center;verticalAlign=middle;resizable=0;points=[];autosize=1;strokeColor=none;fillColor=none;" vertex="1" parent="1">
          <mxGeometry x="150.5" y="429" width="51" height="26" as="geometry" />
        </mxCell>
        <mxCell id="M95a9cunKCdw1WNQ83sx-42" value="&lt;b&gt;Data sources&amp;nbsp;&lt;/b&gt;" style="text;html=1;align=center;verticalAlign=middle;resizable=0;points=[];autosize=1;strokeColor=none;fillColor=none;" vertex="1" parent="1">
          <mxGeometry x="593.25" y="475" width="97" height="26" as="geometry" />
        </mxCell>
        <mxCell id="M95a9cunKCdw1WNQ83sx-43" value="" style="edgeStyle=orthogonalEdgeStyle;rounded=0;orthogonalLoop=1;jettySize=auto;html=1;entryX=0;entryY=0.5;entryDx=0;entryDy=0;endArrow=none;endFill=0;startArrow=classic;startFill=1;" edge="1" parent="1" target="M95a9cunKCdw1WNQ83sx-15">
          <mxGeometry relative="1" as="geometry">
            <mxPoint x="399" y="392" as="sourcePoint" />
            <mxPoint x="513" y="392" as="targetPoint" />
          </mxGeometry>
        </mxCell>
        <mxCell id="M95a9cunKCdw1WNQ83sx-45" value="" style="edgeStyle=orthogonalEdgeStyle;rounded=0;orthogonalLoop=1;jettySize=auto;html=1;exitX=0.002;exitY=0.434;exitDx=0;exitDy=0;exitPerimeter=0;startArrow=classic;startFill=1;endArrow=none;endFill=0;" edge="1" parent="1" source="M95a9cunKCdw1WNQ83sx-21" target="M95a9cunKCdw1WNQ83sx-2">
          <mxGeometry relative="1" as="geometry">
            <mxPoint x="369" y="364" as="sourcePoint" />
            <mxPoint x="369" y="295" as="targetPoint" />
          </mxGeometry>
        </mxCell>
        <mxCell id="M95a9cunKCdw1WNQ83sx-46" value="&lt;b&gt;Restaurant booking system&lt;/b&gt;" style="text;html=1;align=center;verticalAlign=middle;resizable=0;points=[];autosize=1;strokeColor=none;fillColor=none;" vertex="1" parent="1">
          <mxGeometry x="554.25" y="651" width="175" height="26" as="geometry" />
        </mxCell>
        <mxCell id="M95a9cunKCdw1WNQ83sx-47" value="&lt;b&gt;Ingest content&lt;/b&gt;" style="text;html=1;align=center;verticalAlign=middle;resizable=0;points=[];autosize=1;strokeColor=none;fillColor=none;" vertex="1" parent="1">
          <mxGeometry x="438" y="315" width="100" height="26" as="geometry" />
        </mxCell>
        <mxCell id="M95a9cunKCdw1WNQ83sx-48" value="&lt;b&gt;Call APIs&lt;/b&gt;" style="text;html=1;align=center;verticalAlign=middle;resizable=0;points=[];autosize=1;strokeColor=none;fillColor=none;" vertex="1" parent="1">
          <mxGeometry x="323.5" y="510" width="70" height="26" as="geometry" />
        </mxCell>
      </root>
    </mxGraphModel>
  </diagram>
</mxfile>
